<?xml version="1.0" encoding="utf-8"?>
<!-- Generator: Adobe Illustrator 27.3.1, SVG Export Plug-In . SVG Version: 6.00 Build 0)  -->
<svg version="1.1" id="footer_mail" xmlns="http://www.w3.org/2000/svg" xmlns:xlink="http://www.w3.org/1999/xlink" x="0px"
	 y="0px" viewBox="0 0 800 800" style="enable-background:new 0 0 800 800;" xml:space="preserve">
<style type="text/css">
	.st0{fill:currentColor;}
</style>
<g>
	<path class="st0" d="M525.7,283.5l-112.5,98.4c-7.5,6.6-18.8,6.6-26.4,0l-112.5-98.4c-8.3-7.3-21-6.4-28.3,1.9
		c-7.3,8.3-6.5,21,1.9,28.3L360.4,412c22.7,19.8,56.5,19.8,79.2,0L552,313.6c8.3-7.3,9.2-19.9,1.9-28.3
		C546.6,277,534,276.2,525.7,283.5z"/>
	<path class="st0" d="M400,0C179.1,0,0,179.1,0,400s179.1,400,400,400s400-179.1,400-400S620.9,0,400,0z M600.3,480.8
		c0,8.8,0,16.4-0.4,22.6c-0.5,6.6-1.5,13.2-4.1,19.8c-6.1,14.7-17.8,26.4-32.5,32.5c-6.5,2.7-13.1,3.7-19.8,4.1
		c-6.3,0.4-13.9,0.4-22.7,0.4H279.2c-8.8,0-16.4,0-22.7-0.4c-6.6-0.5-13.2-1.5-19.8-4.1c-14.7-6.1-26.4-17.8-32.5-32.5
		c-2.7-6.5-3.7-13.1-4.1-19.8c-0.4-6.3-0.4-13.9-0.4-22.6V319.2c0-8.8,0-16.4,0.4-22.6c0.5-6.6,1.5-13.2,4.1-19.8
		c6.1-14.7,17.8-26.4,32.5-32.5c6.5-2.7,13.1-3.7,19.8-4.1c6.3-0.4,13.9-0.4,22.7-0.4h241.7c8.8,0,16.4,0,22.7,0.4
		c6.6,0.5,13.2,1.5,19.8,4.1c14.7,6.1,26.4,17.8,32.5,32.5c2.7,6.5,3.7,13.1,4.1,19.8c0.4,6.3,0.4,13.9,0.4,22.6V480.8z"/>
</g>
</svg>
