<?xml version="1.0" encoding="utf-8"?>
<!-- Generator: Adobe Illustrator 27.3.1, SVG Export Plug-In . SVG Version: 6.00 Build 0)  -->
<svg version="1.1" id="레이어_1" xmlns="http://www.w3.org/2000/svg" xmlns:xlink="http://www.w3.org/1999/xlink" x="0px"
	 y="0px" viewBox="0 0 800 800" style="enable-background:new 0 0 800 800;" xml:space="preserve">
<style type="text/css">
	.st0{fill:none;}
	.st1{fill-rule:evenodd;clip-rule:evenodd;fill:currentColor;}
</style>
<g>
	<path class="st0" d="M0,0h800v800H0V0z"/>
	<path class="st1" d="M400,0c220.9,0,400,179.1,400,400S620.9,800,400,800S0,620.9,0,400S179.1,0,400,0z M399.8,175.2
		C275.6,175.1,175,275.6,175,399.7c0,98.1,62.9,181.6,150.6,212.2c11.8,3,10-5.4,10-11.1v-38.9c-68.2,8-70.9-37.1-75.5-44.6
		c-9.2-15.8-31.1-19.8-24.6-27.3c15.5-8,31.3,2,49.7,29.1c13.3,19.6,39.1,16.3,52.2,13.1c2.9-11.8,9-22.3,17.4-30.5
		c-70.6-12.7-100-55.7-100-107c0-24.9,8.2-47.7,24.3-66.1c-10.2-30.4,1-56.4,2.5-60.3c29.2-2.6,59.5,20.9,61.9,22.8
		c16.6-4.5,35.5-6.8,56.7-6.8c21.3,0,40.3,2.5,57,7c5.7-4.3,33.8-24.5,60.9-22c1.5,3.9,12.4,29.3,2.8,59.3
		c16.3,18.5,24.6,41.5,24.6,66.4c0,51.3-29.6,94.5-100.4,106.9c11.8,11.7,19.1,27.8,19.1,45.7v56.5c0.4,4.5,0,9,7.5,9
		c88.9-30,153-114,153-213C624.5,275.6,523.9,175.2,399.8,175.2L399.8,175.2z"/>
</g>
</svg>
