<svg viewBox="0 0 72 20" fill="none" xmlns="http://www.w3.org/2000/svg">
<path d="M6.5 10.5C6.5 9.40667 6.36 8.62 6.08 8.14C5.81333 7.64667 5.30667 7.4 4.56 7.4C4.29333 7.4 4 7.42 3.68 7.46C3.36 7.5 3.12 7.53333 2.96 7.56V16H0.54V5.88C1.00667 5.74667 1.61333 5.62 2.36 5.5C3.12 5.38 3.92 5.32 4.76 5.32C5.48 5.32 6.06667 5.41333 6.52 5.6C6.98667 5.78667 7.37333 6.03333 7.68 6.34C7.82667 6.23333 8.01333 6.12 8.24 6C8.46667 5.88 8.72 5.77333 9 5.68C9.28 5.57333 9.57333 5.48667 9.88 5.42C10.2 5.35333 10.52 5.32 10.84 5.32C11.6533 5.32 12.32 5.44 12.84 5.68C13.3733 5.90667 13.7867 6.23333 14.08 6.66C14.3867 7.07333 14.5933 7.58 14.7 8.18C14.82 8.76667 14.88 9.41333 14.88 10.12V16H12.46V10.5C12.46 9.40667 12.3267 8.62 12.06 8.14C11.7933 7.64667 11.28 7.4 10.52 7.4C10.1333 7.4 9.76667 7.46667 9.42 7.6C9.07333 7.72 8.81333 7.84 8.64 7.96C8.74667 8.29333 8.82 8.64667 8.86 9.02C8.9 9.39333 8.92 9.79333 8.92 10.22V16H6.5V10.5ZM26.4247 15.68C25.958 15.8 25.3514 15.92 24.6047 16.04C23.858 16.1733 23.038 16.24 22.1447 16.24C21.3047 16.24 20.598 16.12 20.0247 15.88C19.4647 15.64 19.0114 15.3067 18.6647 14.88C18.3314 14.4533 18.0914 13.9467 17.9447 13.36C17.798 12.76 17.7247 12.1067 17.7247 11.4V5.54H20.1447V11.02C20.1447 12.14 20.3047 12.94 20.6247 13.42C20.958 13.9 21.5314 14.14 22.3447 14.14C22.638 14.14 22.9447 14.1267 23.2647 14.1C23.598 14.0733 23.8447 14.04 24.0047 14V5.54H26.4247V15.68ZM28.9248 10.78C28.9248 10.0067 29.0448 9.28667 29.2848 8.62C29.5248 7.94 29.8648 7.35333 30.3048 6.86C30.7582 6.36667 31.3048 5.98 31.9448 5.7C32.5848 5.42 33.3048 5.28 34.1048 5.28C35.0915 5.28 36.0248 5.46 36.9048 5.82L36.3848 7.8C36.1048 7.68 35.7848 7.58 35.4248 7.5C35.0782 7.42 34.7048 7.38 34.3048 7.38C33.3582 7.38 32.6382 7.68 32.1448 8.28C31.6515 8.86667 31.4048 9.7 31.4048 10.78C31.4048 11.82 31.6382 12.6467 32.1048 13.26C32.5715 13.86 33.3582 14.16 34.4648 14.16C34.8782 14.16 35.2848 14.12 35.6848 14.04C36.0848 13.96 36.4315 13.86 36.7248 13.74L37.0648 15.74C36.7982 15.8733 36.3915 15.9933 35.8448 16.1C35.3115 16.2067 34.7582 16.26 34.1848 16.26C33.2915 16.26 32.5115 16.1267 31.8448 15.86C31.1915 15.58 30.6448 15.2 30.2048 14.72C29.7782 14.2267 29.4582 13.6467 29.2448 12.98C29.0315 12.3 28.9248 11.5667 28.9248 10.78ZM45.8784 10.74C45.8784 9.71333 45.6718 8.9 45.2584 8.3C44.8584 7.7 44.2184 7.4 43.3384 7.4C42.9384 7.4 42.5584 7.46 42.1984 7.58C41.8518 7.7 41.5718 7.83333 41.3584 7.98V14C41.5318 14.04 41.7518 14.08 42.0184 14.12C42.2984 14.1467 42.6318 14.16 43.0184 14.16C43.9118 14.16 44.6118 13.86 45.1184 13.26C45.6251 12.6467 45.8784 11.8067 45.8784 10.74ZM48.3584 10.78C48.3584 11.62 48.2318 12.38 47.9784 13.06C47.7384 13.7267 47.3851 14.3 46.9184 14.78C46.4651 15.26 45.9118 15.6267 45.2584 15.88C44.6051 16.1333 43.8651 16.26 43.0384 16.26C42.2384 16.26 41.4718 16.2 40.7384 16.08C40.0184 15.96 39.4184 15.8267 38.9384 15.68V0.879999L41.3584 0.48V5.9C41.6384 5.75333 41.9784 5.62 42.3784 5.5C42.7918 5.38 43.2451 5.32 43.7384 5.32C44.4718 5.32 45.1251 5.45333 45.6984 5.72C46.2851 5.97333 46.7718 6.34 47.1584 6.82C47.5451 7.3 47.8384 7.88 48.0384 8.56C48.2518 9.22667 48.3584 9.96667 48.3584 10.78ZM60.3125 10.76C60.3125 11.5867 60.1925 12.34 59.9525 13.02C59.7125 13.7 59.3725 14.28 58.9325 14.76C58.4925 15.24 57.9592 15.6133 57.3325 15.88C56.7192 16.1467 56.0392 16.28 55.2925 16.28C54.5458 16.28 53.8658 16.1467 53.2525 15.88C52.6392 15.6133 52.1125 15.24 51.6725 14.76C51.2325 14.28 50.8858 13.7 50.6325 13.02C50.3925 12.34 50.2725 11.5867 50.2725 10.76C50.2725 9.93333 50.3925 9.18667 50.6325 8.52C50.8858 7.84 51.2325 7.26 51.6725 6.78C52.1258 6.3 52.6592 5.93333 53.2725 5.68C53.8858 5.41333 54.5592 5.28 55.2925 5.28C56.0258 5.28 56.6992 5.41333 57.3125 5.68C57.9392 5.93333 58.4725 6.3 58.9125 6.78C59.3525 7.26 59.6925 7.84 59.9325 8.52C60.1858 9.18667 60.3125 9.93333 60.3125 10.76ZM57.8325 10.76C57.8325 9.72 57.6058 8.9 57.1525 8.3C56.7125 7.68667 56.0925 7.38 55.2925 7.38C54.4925 7.38 53.8658 7.68667 53.4125 8.3C52.9725 8.9 52.7525 9.72 52.7525 10.76C52.7525 11.8133 52.9725 12.6467 53.4125 13.26C53.8658 13.8733 54.4925 14.18 55.2925 14.18C56.0925 14.18 56.7125 13.8733 57.1525 13.26C57.6058 12.6467 57.8325 11.8133 57.8325 10.76ZM64.7056 10.5C64.7056 11.5267 64.9256 12.28 65.3656 12.76C65.819 13.2267 66.399 13.46 67.1056 13.46C67.4923 13.46 67.8523 13.4067 68.1856 13.3C68.5323 13.1933 68.8123 13.0667 69.0256 12.92V7.5C68.8523 7.46 68.639 7.42667 68.3856 7.4C68.1323 7.36 67.8123 7.34 67.4256 7.34C66.5456 7.34 65.8723 7.63333 65.4056 8.22C64.939 8.79333 64.7056 9.55333 64.7056 10.5ZM71.4456 14.94C71.4456 16.6067 71.019 17.8267 70.1656 18.6C69.3256 19.3733 68.0323 19.76 66.2856 19.76C65.6456 19.76 65.019 19.7067 64.4056 19.6C63.8056 19.4933 63.259 19.3533 62.7656 19.18L63.2056 17.12C63.619 17.2933 64.0856 17.4333 64.6056 17.54C65.139 17.6467 65.7123 17.7 66.3256 17.7C67.299 17.7 67.9923 17.5 68.4056 17.1C68.819 16.7 69.0256 16.1067 69.0256 15.32V14.92C68.7856 15.04 68.4656 15.16 68.0656 15.28C67.679 15.4 67.2323 15.46 66.7256 15.46C66.059 15.46 65.4456 15.3533 64.8856 15.14C64.339 14.9267 63.8656 14.6133 63.4656 14.2C63.079 13.7867 62.7723 13.2733 62.5456 12.66C62.3323 12.0333 62.2256 11.3133 62.2256 10.5C62.2256 9.74 62.339 9.04 62.5656 8.4C62.8056 7.76 63.1456 7.21333 63.5856 6.76C64.039 6.30667 64.5856 5.95333 65.2256 5.7C65.8656 5.44667 66.5923 5.32 67.4056 5.32C68.1923 5.32 68.939 5.38 69.6456 5.5C70.3523 5.62 70.9523 5.74667 71.4456 5.88V14.94Z" fill="currentColor"/>
</svg>
