<svg viewBox="0 0 24 24" fill="none" xmlns="http://www.w3.org/2000/svg">
<path fill-rule="evenodd" clip-rule="evenodd" d="M5 6C5 5.44772 5.44772 5 6 5H18C18.5523 5 19 5.44772 19 6C19 6.55228 18.5523 7 18 7H6C5.44772 7 5 6.55228 5 6ZM3 12C3 11.4477 3.44772 11 4 11H20C20.5523 11 21 11.4477 21 12C21 12.5523 20.5523 13 20 13H4C3.44772 13 3 12.5523 3 12ZM6 17C5.44772 17 5 17.4477 5 18C5 18.5523 5.44772 19 6 19H18C18.5523 19 19 18.5523 19 18C19 17.4477 18.5523 17 18 17H6Z" fill="currentColor"/>
</svg>
